#!OML:ASF E:/inclinewalkrobotboard/Project1/Captureday1/Session1/subject1.ASF
:FULLY-SPECIFIED
:DEGREES
238
root 0 0 0 -1.1423056727328715 -2.8524857994046418 -0.8540825315165312
lowerback 10.956252181472957 0.5643773962947094 0.4648172669142373
upperback -1.1393395965502984 0.881796180068795 0.9013122616102305
thorax -7.325471729684163 0.4061604184613303 0.4386365760167178
lowerneck -13.345790956486805 -1.3843261287486797 0.25008996750928986
upperneck 19.045179448366127 -1.369988412184629 -2.3984035834863677
head 8.201352904248047 -0.7941987121842231 -1.0221485291173285
rclavicle -4.547798181232326E-16 -2.3928881409468006E-16
rhumerus -11.506302108435722 -6.591341167065094 -67.10894895274362
rradius 43.206877683232044
rwrist 12.142046198907227
rhand -23.693184452116427 -5.971864059709853
rfingers 7.1250200000001325
rthumb 3.0091474477980666 -36.123071796316665
lclavicle -9.542542071217504E-16 -8.165309028483942E-16
lhumerus -11.399530863600361 -4.347904761612859 67.9911854867561
lradius 44.465941533705276
lwrist -5.627483044608
lhand -33.654546702592185 -12.557186018032318
lfingers 7.125020000000125
lthumb -6.935167351876089 16.510015007649848
rfemur -28.77537759558244 0.16302059479350728 18.43759734651113
rtibia 62.26757086023636
rfoot 4.649612285590404 -6.464523271365891
rtoes 6.652807483101561
lfemur 15.061437763864218 -4.25022021978003 -30.703496838165428
ltibia 15.817426124387843
lfoot -13.86358776311287 -3.5673526315707447
ltoes -4.214109989761903
239
root 0 0 0 -1.1376551178167538 -2.8534008284743955 -0.8494225780210793
lowerback 10.957870957551423 0.5646929983055863 0.46291370051587544
upperback -1.1447706217212135 0.8819024817370416 0.898874799513178
thorax -7.332913627176947 0.40632741169489367 0.43667534914614026
lowerneck -13.332860371638601 -1.379036722055556 0.2576714444815796
upperneck 19.04417438450205 -1.3623938808200424 -2.409177765780362
head 8.199009354507268 -0.790853087866821 -1.026108866100001
rclavicle -4.546433125936537E-16 -2.4659711628212E-16
rhumerus -11.386048115510075 -6.512352953252027 -67.03399555029388
rradius 43.32120864366179
rwrist 12.19955999439533
rhand -23.73347103225361 -6.170173636813587
rfingers 7.1250200000001325
rthumb 2.968247266045285 -36.319578013554136
lclavicle -9.46787645636573E-16 -8.204156530581854E-16
lhumerus -11.117471302649328 -4.4167246416674475 67.7899501006766
lradius 44.69137964055405
lwrist -5.781338881285059
lhand -33.75176855035711 -13.075404878285367
lfingers 7.1250200000001245
lthumb -7.027940673361684 15.997532754655047
rfemur -30.831370457952666 0.5079195818459916 17.853758215476518
rtibia 58.495851334726126
rfoot 3.7302717221428026 -7.317424271110841
rtoes 5.498931942743861
lfemur 16.50926946358519 -3.9333860160604464 -30.97944001456372
ltibia 18.217409218200512
lfoot -13.072828872987532 -4.844343292856749
ltoes -4.985087468119215
240
root 0 0 0 -1.1352512407627908 -2.853779187749849 -0.8471252596490624
lowerback 10.958643754715515 0.5647696257515961 0.4617655522441364
upperback -1.1474082180275769 0.8819021474793325 0.8977190472221928
thorax -7.336693190302379 0.40638500503582564 0.43575421296261707
lowerneck -13.326182798577205 -1.3764001395199776 0.2615332428906197
upperneck 19.043438078883476 -1.3588137904285325 -2.4147200239187114
head 8.197805647022353 -0.7892181288622446 -1.0281309751082783
rclavicle -4.549802195727473E-16 -2.5224621552296153E-16
rhumerus -11.296968606388921 -6.454221426124272 -66.97845256427182
rradius 43.4057089906111
rwrist 12.24225421463263
rhand -23.76324757129444 -6.31693317577194
rfingers 7.125020000000132
rthumb 2.9380845041345234 -36.465426460869324
lclavicle -9.399465928441974E-16 -8.234620592145667E-16
lhumerus -10.883478776886882 -4.474008489717807 67.62299863789501
lradius 44.878031672233405
lwrist -5.9085256975511875
lhand -33.83265683563995 -13.506026238330639
lfingers 7.125020000000124
lthumb -7.105012164098116 15.573190870907876
rfemur -32.147956350887235 0.991278617622052 17.596233862109816
rtibia 54.29168273800261
rfoot 2.5576113929670434 -8.064759877418163
rtoes 4.412394509452648
lfemur 17.768236851188313 -3.6061741922227295 -31.162171804269434
ltibia 20.752782879897268
lfoot -12.174433466735325 -6.134449056482792
ltoes -5.736309777835171
241
root 0 0 0 -1.1352057067518895 -2.8535908620301185 -0.8473196069970235
lowerback 10.95853445618334 0.5646036400174306 0.46143231295235954
upperback -1.1471102748470483 0.8817870856957934 0.8978993176208491
thorax -7.33661349757325 0.4063307218094346 0.4359207852894034
lowerneck -13.326098617183682 -1.3765517923506254 0.2614749314513917
upperneck 19.04302452809883 -1.3594148169102929 -2.4147562502169215
head 8.197808479336917 -0.7893779259799547 -1.0281201045742543
rclavicle -4.55598745954237E-16 -2.5596900218675707E-16
rhumerus -11.244521420790985 -6.4204796806467 -66.94568314276567
rradius 43.455366049080915
rwrist 12.267519573452187
rhand -23.780717514741905 -6.403342715639376
rfingers 7.125020000000132
rthumb 2.9204395703271393 -36.55189477312498
lclavicle -9.341381681523002E-16 -8.254861927565452E-16
lhumerus -10.71328093126079 -4.515868792349568 67.50161293815414
lradius 45.013553401724245
lwrist -6.000696792929265
lhand -33.89168908668036 -13.820174977639319
lfingers 7.125020000000123
lthumb -7.161162095923484 15.265231730620533
rfemur -32.64085375808514 1.6150490089097274 17.69943635914518
rtibia 49.68811628117442
rfoot 1.1180245615753321 -8.685338153237815
rtoes 3.4057816544225608
lfemur 18.714704014629582 -3.2830016363354733 -31.22825557175102
ltibia 23.301038289409888
lfoot -11.210837643668048 -7.358256260030113
ltoes -6.399357803159199
242
root 0 0 0 -1.1396270967262923 -2.8522175101084666 -0.8523956346815083
lowerback 10.956688185511688 0.5639024366490493 0.462573658601804
upperback -1.141038372032496 0.8813732997031009 0.9007046723029429
thorax -7.329079636765635 0.40604117733603 0.43822923113906725
lowerneck -13.338649739846252 -1.3821493454746614 0.25388129910333107
upperneck 19.043028021120033 -1.3682792122530314 -2.404229839042816
head 8.20014445383604 -0.7930663418801128 -1.024207338569677
rclavicle -4.564925372453626E-16 -2.575685230897598E-16
rhumerus -11.244817022778426 -6.4220374064489105 -66.94548000338351
rradius 43.45509041234724
rwrist 12.267806727309289
rhand -23.78050552557876 -6.40297693736221
rfingers 7.125020000000132
rthumb 2.920825573114509 -36.55393687314859
lclavicle -9.298988043379E-16 -8.26252141745323E-16
lhumerus -10.614261676311036 -4.54072178931186 67.43091365698238
lradius 45.09220927198399
lwrist -6.0536935464799635
lhand -33.926475428945444 -14.00626641213217
lfingers 7.125020000000122
lthumb -7.194064831209799 15.086522238423274
rfemur -31.38817452859161 2.840107599775826 18.713090696983357
rtibia 42.115752306903595
rfoot -1.6264504248442986 -9.280044525872482
rtoes 2.119379810461404
lfemur 19.35652592923433 -2.8292420071099342 -31.056591278291947
ltibia 26.960781472172528
lfoot -9.691317233121431 -8.949736617772288
ltoes -7.1449230947907845
243
root 0 0 0 -1.1455719676779546 -2.850577556447839 -0.858926297157723
lowerback 10.954378829023051 0.5631760208550828 0.4645049678938671
upperback -1.1333016543301078 0.8810142439542576 0.9042008662333928
thorax -7.319123463943613 0.40571019572980577 0.44114746595009524
lowerneck -13.35554666268828 -1.389390863824001 0.24382117535118158
upperneck 19.043645763729955 -1.3794032209644325 -2.3901098885027965
head 8.203221562579689 -0.7977995564355733 -1.0189521428774189
rclavicle -4.574152400572351E-16 -2.55599077342379E-16
rhumerus -11.298839517955365 -6.458653348441841 -66.97894261628602
rradius 43.4033003422637
rwrist 12.242309349700216
rhand -23.762224736296677 -6.3143638071250106
rfingers 7.125020000000132
rthumb 2.9393950893801124 -36.46735168809555
lclavicle -9.285236716155415E-16 -8.255349098438221E-16
lhumerus -10.677546914592085 -4.525672908559741 67.47707025668916
lradius 45.04155791301225
lwrist -6.018581027448616
lhand -33.90476220480843 -13.891400861155551
lfingers 7.125020000000122
lthumb -7.173070220243188 15.204089508300898
rfemur -28.696904767507945 3.949061781608454 20.2077145356909
rtibia 36.25201047084234
rfoot -4.109060354005418 -9.391761421905914
rtoes 1.4074540251576366
lfemur 19.17801860526285 -2.5451877692987854 -30.704268216502758
ltibia 29.345337889663874
lfoot -8.56933784746533 -9.852969998058134
ltoes -7.484114325283291
